<svg width="271" height="26" viewBox="0 0 271 26" fill="none" xmlns="http://www.w3.org/2000/svg">
<g clip-path="url(#clip0_1_492)">
<path d="M148.975 16.9221C148.975 17.6704 148.514 18.0446 147.593 18.0446C146.774 18.0446 146.365 17.6704 146.365 16.9221V3.97144L136.419 17.1037C135.931 17.747 135.34 18.0599 134.644 18.0446C133.843 18.0446 133.226 17.7317 132.791 17.1037L122.687 3.9977V16.9199C122.687 17.6682 122.26 18.0424 121.407 18.0424C120.536 18.0424 120.101 17.6682 120.101 16.9199V1.54497C120.101 0.536308 120.597 0.0308838 121.588 0.0308838C122.284 0.0308838 122.868 0.335014 123.337 0.945461L134.666 15.4343L145.788 0.814182C145.978 0.571316 146.223 0.378773 146.518 0.24093C146.814 0.100899 147.111 0.0330718 147.407 0.0330718C148.45 0.0330718 148.973 0.556 148.973 1.59967V16.9221H148.975Z" fill="#009FE3"/>
<path d="M159.388 17.8627C158.719 17.6439 158.819 16.8431 158.819 16.8431C158.889 15.7951 159.648 15.8235 159.648 15.8235L171.715 15.8082L163.103 2.45274L153.314 17.4908C153.174 17.6833 153.019 17.8255 152.844 17.9218C152.669 18.0181 152.513 18.0662 152.373 18.0662C152.008 18.0662 151.682 17.9568 151.395 17.7402C151.109 17.5236 150.964 17.2216 150.964 16.8387C150.964 16.6309 151.034 16.4121 151.172 16.1867L161.327 0.914586C161.517 0.619209 161.775 0.391658 162.097 0.236312C162.418 0.0787767 162.736 0.00219727 163.049 0.00219727C163.727 0.00219727 164.276 0.306327 164.694 0.916775L174.953 16.1889C175.076 16.2939 175.148 16.4077 175.177 16.528C175.203 16.6506 175.216 16.7534 175.216 16.8409C175.216 17.2063 175.08 17.4929 174.811 17.703C174.54 17.913 174.061 17.9371 173.713 17.9371L159.388 17.8627Z" fill="#009FE3"/>
<path d="M192.79 2.24931H178.456C177.813 2.24931 177.491 1.88392 177.491 1.15313C177.491 0.509866 177.813 0.188232 178.456 0.188232H195.295C195.678 0.188232 195.982 0.319511 196.21 0.579882C196.435 0.840252 196.549 1.13782 196.549 1.4682C196.549 1.60823 196.518 1.75045 196.457 1.89924C196.396 2.04802 196.295 2.17273 196.157 2.27776L180.703 15.7973H195.584C196.227 15.7973 196.551 16.1364 196.551 16.8169C196.551 17.5477 196.227 17.9131 195.584 17.9131H178.798C178.31 17.9131 177.922 17.7599 177.636 17.4558C177.349 17.1517 177.205 16.8257 177.205 16.4778C177.205 16.1124 177.36 15.782 177.675 15.4866L192.79 2.24931Z" fill="#009FE3"/>
<path d="M202.612 16.9503C202.612 17.6811 202.168 18.0465 201.281 18.0465C200.393 18.0465 199.951 17.6811 199.951 16.9503V1.15526C199.951 0.424475 200.413 0.059082 201.334 0.059082C202.187 0.059082 202.614 0.424475 202.614 1.15526V16.9503H202.612Z" fill="#009FE3"/>
<path d="M227.139 16.2873C227.139 16.8956 226.981 17.3441 226.669 17.6329C226.356 17.9196 225.982 18.064 225.546 18.064C225.354 18.064 225.15 18.0246 224.934 17.9458C224.715 17.8671 224.511 17.7336 224.321 17.541L208.631 3.52262V16.9415C208.631 17.6898 208.195 18.064 207.325 18.064C206.471 18.064 206.047 17.6898 206.047 16.9415V1.71973C206.047 1.16179 206.215 0.7592 206.557 0.505394C206.896 0.253776 207.266 0.126872 207.666 0.126872C207.909 0.126872 208.147 0.166256 208.384 0.245024C208.618 0.323791 208.832 0.459446 209.022 0.649801L224.557 14.3816V1.14647C224.557 0.415686 225.01 0.050293 225.914 0.050293C226.732 0.050293 227.141 0.415686 227.141 1.14647V16.2873H227.139Z" fill="#009FE3"/>
<path d="M251.496 13.5983C251.496 16.4887 249.295 17.9327 244.89 17.9327H237.685C232.898 17.9327 230.506 16.4974 230.506 13.6246V4.40881C230.506 1.606 232.926 0.205688 237.764 0.205688H240.584C241.21 0.205688 241.523 0.544826 241.523 1.2231C241.523 1.91888 241.21 2.26677 240.584 2.26677H238.547C234.961 2.26677 233.169 2.98005 233.169 4.40662V13.6224C233.169 15.084 234.701 15.8148 237.764 15.8148H244.89C247.5 15.8148 248.807 15.1015 248.807 13.6749L248.822 11.0187C248.822 11.0187 249.494 10.9465 250.03 10.848C250.739 10.719 251.493 10.3601 251.493 10.3601V13.5983H251.496Z" fill="#009FE3"/>
<path d="M235.114 3.76768C235.114 3.76768 237.91 11.5963 248.942 9.79776C253.178 9.13918 257.707 5.96879 259.392 4.99733C262.51 3.1988 267.726 1.46811 270.043 1.77443C268.205 0.743886 264.009 0.765766 260.451 1.99323C256.29 3.43073 254.016 5.54432 250.38 6.77178C246.829 7.9708 244.584 8.2618 240.908 7.20938C237.234 6.15915 235.114 3.76768 235.114 3.76768Z" fill="#3BB0E5"/>
<path opacity="0.6" d="M243.866 7.80241C244.072 8.62947 244.446 9.39089 244.951 10.0451C246.144 10.1064 247.47 10.0407 248.944 9.80004C251.325 9.43027 253.795 8.26845 255.804 7.1482C255.839 6.88127 255.858 6.60996 255.858 6.33427C255.858 5.62099 255.736 4.93834 255.511 4.30164C253.861 5.22059 252.314 6.12204 250.382 6.77406C247.881 7.61862 246.026 8.01027 243.866 7.80241Z" fill="url(#paint0_radial_1_492)"/>
<path d="M104.43 4.14626H114.187L117.98 0.155377H102.332C102.332 0.155377 98.2777 -0.0459181 97.7001 5.04771V7.13505C97.7001 7.13505 97.6519 11.0537 101.94 11.0537C106.229 11.0537 113.02 11.0537 113.02 11.0537C113.02 11.0537 113.983 11.1106 113.983 11.9399C113.983 12.7691 112.78 14.1147 111.863 14.1147C110.948 14.1147 101.818 14.1147 101.818 14.1147L97.5535 18.1472C97.5535 18.1472 112.821 18.1472 113.572 18.1472C114.322 18.1472 117.619 17.6614 118.221 13.198C118.293 12.7122 118.221 10.7955 118.221 10.7955C118.221 10.7955 118.053 7.07597 114.005 7.07597C109.957 7.07597 102.732 7.07597 102.732 7.07597C102.732 7.07597 101.914 6.93375 101.914 6.13295C101.914 5.33215 102.949 4.14626 104.43 4.14626Z" fill="white"/>
<path d="M56.7497 0.188232H38.119C39.6594 0.914643 40.7358 2.47905 40.7358 4.28852V10.3142C40.7358 10.3164 40.7358 10.3186 40.7358 10.3208V12.7538C40.7358 15.7207 42.775 18.1472 45.2693 18.1472H56.7497C59.2418 18.1472 61.2832 15.7207 61.2832 12.7538V5.58161C61.2832 2.61689 59.244 0.188232 56.7497 0.188232ZM57.2836 11.0713C57.2836 12.8129 56.0867 14.2373 54.623 14.2373H47.4004C45.9367 14.2373 44.7399 12.8129 44.7399 11.0713V7.26636C44.7399 5.52473 45.9367 4.10035 47.4004 4.10035H54.623C56.0867 4.10035 57.2836 5.52473 57.2836 7.26636V11.0713Z" fill="white"/>
<path d="M99.5927 0.153076H78.9206C79.0562 0.234032 79.1897 0.321551 79.3232 0.422198C80.6294 1.23394 81.5112 2.66926 81.5352 4.30587H87.1474V18.1471H91.5562V4.22054H96.8839C96.9474 2.41983 98.0414 0.872923 99.5927 0.153076Z" fill="white"/>
<path d="M18.8582 7.65138V10.2048C18.8582 9.95095 18.8582 8.73005 18.8582 7.65138C18.2675 7.29036 17.4886 7.04749 16.4515 7.04749C12.4037 7.04749 5.17896 7.04749 5.17896 7.04749C5.17896 7.04749 4.36065 6.90527 4.36065 6.10666C4.36065 5.30805 5.39557 4.41754 6.87683 4.41754H19.9522V4.22718C19.9522 2.4396 18.8998 0.890506 17.3857 0.153156H4.77637C4.77637 0.153156 0.722035 -0.0459511 0.144407 5.02361V7.10219C0.144407 7.10219 0.0962714 11.0056 4.38472 11.0056C8.67317 11.0056 15.4647 11.0056 15.4647 11.0056C15.4647 11.0056 16.4274 11.0624 16.4274 11.8895C16.4274 12.7166 15.224 14.0534 14.3072 14.0534C13.3905 14.0534 4.26219 14.0534 4.26219 14.0534L0 18.0706C0 18.0706 15.0774 18.0706 16.0182 18.0706C16.9591 18.0706 20.066 17.587 20.6677 13.1432C20.7399 12.6597 20.6677 10.7496 20.6677 10.7496C20.6677 10.7496 20.5736 8.70161 18.8582 7.65138Z" fill="white"/>
<path d="M40.0445 4.90776C39.3947 -0.310585 34.8415 0.164208 34.8415 0.164208H18.7182C20.2213 0.903746 21.265 2.44627 21.265 4.22729V4.3892H34.662C35.4563 4.3892 35.9267 4.60581 35.9267 5.94267C35.9267 7.27953 34.7342 7.32329 34.7342 7.32329H21.5079V18.1472H25.7351V11.4192C25.7351 11.4192 32.31 11.3754 36.1411 11.3754C39.9723 11.3754 40.1167 7.23577 40.1167 7.23577C40.1167 7.23577 40.1517 6.28837 40.0445 4.90776Z" fill="white"/>
<path d="M75.5883 4.33436H80.5616C79.6908 -0.28885 75.4373 0.146559 75.4373 0.146559H59.3381C60.9266 0.875158 62.0403 2.46801 62.0644 4.31686H75.2557C75.3739 4.31686 75.4833 4.32123 75.5883 4.33436Z" fill="white"/>
<path d="M69.8842 11.2199C69.8842 11.2199 75.4461 11.2089 76.7348 11.2089C80.2706 11.2089 80.6644 7.73222 80.7038 7.19617H75.4417C75.3717 7.20711 75.3279 7.2093 75.3279 7.2093H62.1038L75.1332 25.9275H80.1043L69.8842 11.2199Z" fill="#009FE3"/>
</g>
<defs>
<radialGradient id="paint0_radial_1_492" cx="0" cy="0" r="1" gradientUnits="userSpaceOnUse" gradientTransform="translate(249.862 7.18395) scale(4.70443 4.70443)">
<stop stop-color="white"/>
<stop offset="1" stop-color="white" stop-opacity="0"/>
</radialGradient>
<clipPath id="clip0_1_492">
<rect width="270.043" height="25.9276" fill="white"/>
</clipPath>
</defs>
</svg>
